<?xml version="1.0" encoding="utf-8"?>
<!-- Generator: Adobe Illustrator 19.0.0, SVG Export Plug-In . SVG Version: 6.00 Build 0)  -->
<svg version="1.1" id="Layer_1" xmlns="http://www.w3.org/2000/svg" xmlns:xlink="http://www.w3.org/1999/xlink" x="0px" y="0px"
	 viewBox="0 0 100 100" style="enable-background:new 0 0 100 100;" xml:space="preserve">
<style type="text/css">
	.st0{fill:#535353;}
</style>
<rect id="XMLID_86_" x="21.6" y="10.3" class="st0" width="57.1" height="3.3"/>
<rect id="XMLID_98_" x="10" y="21.7" class="st0" width="3.3" height="57.1"/>
<g id="XMLID_73_">
	<rect id="XMLID_78_" x="86.9" y="21.7" class="st0" width="3.3" height="57.1"/>
	<rect id="XMLID_101_" x="21.6" y="87.2" class="st0" width="57.1" height="3.3"/>
</g>
<g id="XMLID_179_">
	<path id="XMLID_180_" class="st0" d="M23.3,23.4H0.2V0.3h23.1V23.4z M3.5,20.1H20V3.6H3.5V20.1z"/>
</g>
<g id="XMLID_175_">
	<path id="XMLID_176_" class="st0" d="M100.2,23.4H77.1V0.3h23.1V23.4z M80.4,20.1h16.4V3.6H80.4V20.1z"/>
</g>
<g id="XMLID_171_">
	<path id="XMLID_172_" class="st0" d="M23.3,100.3H0.2V77.2h23.1V100.3z M3.5,97H20V80.5H3.5V97z"/>
</g>
<g id="XMLID_167_">
	<path id="XMLID_168_" class="st0" d="M100.2,100.3H77.1V77.2h23.1V100.3z M80.4,97h16.4V80.5H80.4V97z"/>
</g>
<g id="XMLID_97_">
	
		<rect id="XMLID_100_" x="39.4" y="59.2" transform="matrix(-0.7071 0.7071 -0.7071 -0.7071 134.0445 66.2273)" class="st0" width="27.9" height="3.3"/>
	
		<rect id="XMLID_99_" x="26" y="45.9" transform="matrix(-0.7071 0.7071 -0.7071 -0.7071 101.8446 53.0088)" class="st0" width="27.9" height="3.3"/>
</g>
<path id="XMLID_163_" class="st0" d="M55.8,33.9l5.1-5.1c3-3,8-3,11,0c3,3,3,8,0,11l-5.1,5.1l2.3,2.3l5.1-5.1
	c4.3-4.3,4.3-11.5,0-15.8c-4.3-4.3-11.5-4.3-15.8,0l-5,5.3L55.8,33.9z"/>
<g id="XMLID_76_">
	<path id="XMLID_118_" class="st0" d="M66.3,55.3c-0.8,0-1.7-0.3-2.3-1L46.5,36.8c-0.7-0.7-1-1.5-1-2.3c0-0.8,0.3-1.7,1-2.3l2.7-2.7
		c1.3-1.3,3.5-1.3,4.7,0L71.3,47c0.7,0.7,1,1.5,1,2.3c0,0.8-0.3,1.7-1,2.3l-2.7,2.7C68,55,67.1,55.3,66.3,55.3z M66.3,52l-1.2,1.2
		L66.3,52L66.3,52L66.3,52z M51.5,31.9l-2.7,2.7L66.3,52l2.7-2.7L51.5,31.9z"/>
</g>
<path id="XMLID_155_" class="st0" d="M45.2,71.4L29.4,55.6l-3,3l-4.8,20.6l20.6-4.8L45.2,71.4z M29.4,60.4l11,11l-14.5,3.3
	L29.4,60.4z"/>
</svg>
